<svg width="81" height="49" viewBox="0 0 81 49" fill="none" xmlns="http://www.w3.org/2000/svg">
<rect width="81" height="49" rx="24.5" fill="white"/>
<path d="M28.564 11.0589C27.9352 11.2861 27.4703 11.7088 27.1691 12.3218L27 12.6705V24.4797V36.2889L27.1691 36.6376C27.4755 37.2664 27.9511 37.6838 28.5904 37.9004C28.8969 38.0061 29.0501 38.0061 40.6057 37.9955L52.3092 37.9797L52.6791 37.8C53.1652 37.5623 53.5826 37.1448 53.8204 36.6587L54 36.2889V24.4797V12.6705L53.8204 12.3006C53.5826 11.8145 53.1652 11.3971 52.6791 11.1593L52.3092 10.9797L40.5793 10.9691C29.1082 10.9585 28.844 10.9585 28.564 11.0589ZM52.0186 12.681C52.119 12.7445 52.2511 12.8765 52.3092 12.9717C52.4096 13.1355 52.4149 13.257 52.4307 15.2173L52.4466 17.2938H40.5H28.5534L28.5693 15.2173C28.5851 13.1883 28.5851 13.1407 28.7014 12.9611C28.8282 12.755 28.9814 12.6441 29.2192 12.5859C29.309 12.5648 34.429 12.5542 40.6057 12.5542L51.8337 12.5648L52.0186 12.681ZM52.4307 27.3435C52.4149 35.7077 52.4149 35.8133 52.3092 35.9877C52.2511 36.0828 52.119 36.2149 52.0186 36.2783L51.8337 36.3946H40.5H29.1663L28.9814 36.2783C28.881 36.2149 28.7489 36.0828 28.6908 35.9877C28.5851 35.8133 28.5851 35.7077 28.5693 27.3435L28.5587 18.8789H40.5H52.4413L52.4307 27.3435Z" fill="url(#paint0_linear_34717_16243)"/>
<path d="M32.1305 14.2242C31.8874 14.388 31.7817 14.5888 31.7817 14.9164C31.7817 15.4184 32.0723 15.709 32.5743 15.709C33.0763 15.709 33.3669 15.4184 33.3669 14.9164C33.3669 14.4145 33.0763 14.1239 32.5743 14.1239C32.3788 14.1239 32.2361 14.1556 32.1305 14.2242Z" fill="url(#paint1_linear_34717_16243)"/>
<path d="M35.3009 14.2242C35.0578 14.388 34.9521 14.5888 34.9521 14.9164C34.9521 15.4184 35.2428 15.709 35.7447 15.709C36.2467 15.709 36.5373 15.4184 36.5373 14.9164C36.5373 14.4145 36.2467 14.1239 35.7447 14.1239C35.5492 14.1239 35.4066 14.1556 35.3009 14.2242Z" fill="url(#paint2_linear_34717_16243)"/>
<path d="M38.4708 14.2242C38.2277 14.388 38.1221 14.5888 38.1221 14.9164C38.1221 15.4184 38.4127 15.709 38.9146 15.709C39.4166 15.709 39.7072 15.4184 39.7072 14.9164C39.7072 14.4145 39.4166 14.1239 38.9146 14.1239C38.7191 14.1239 38.5765 14.1556 38.4708 14.2242Z" fill="url(#paint3_linear_34717_16243)"/>
<path d="M32.1305 20.5645C32.0512 20.6173 31.935 20.7335 31.8821 20.8128C31.787 20.9555 31.7817 21.1087 31.7817 23.6607C31.7817 26.2128 31.787 26.366 31.8821 26.5087C31.935 26.588 32.0512 26.7042 32.1305 26.757C32.2784 26.8521 32.5426 26.8574 40.5264 26.8574C48.5101 26.8574 48.7743 26.8521 48.9222 26.757C49.0015 26.7042 49.1177 26.588 49.1706 26.5087C49.2657 26.366 49.271 26.2128 49.271 23.6607C49.271 21.1087 49.2657 20.9555 49.1706 20.8128C49.1177 20.7335 49.0015 20.6173 48.9222 20.5645C48.7743 20.4694 48.5101 20.4641 40.5264 20.4641C32.5426 20.4641 32.2784 20.4694 32.1305 20.5645ZM47.6858 23.6607V25.2723H40.5264H33.3669V23.6607V22.0492H40.5264H47.6858V23.6607Z" fill="url(#paint4_linear_34717_16243)"/>
<path d="M32.1305 28.543C32.0512 28.5958 31.935 28.7121 31.8821 28.7913C31.787 28.934 31.7817 29.0872 31.7817 31.6393C31.7817 34.1913 31.787 34.3445 31.8821 34.4872C31.935 34.5665 32.0512 34.6827 32.1305 34.7355C32.2784 34.8307 32.4581 34.8359 36.5371 34.8359C40.6162 34.8359 40.7958 34.8307 40.9438 34.7355C41.023 34.6827 41.1393 34.5665 41.1921 34.4872C41.2872 34.3445 41.2925 34.1913 41.2925 31.6393C41.2925 29.0872 41.2872 28.934 41.1921 28.7913C41.1393 28.7121 41.023 28.5958 40.9438 28.543C40.7958 28.4479 40.6162 28.4426 36.5371 28.4426C32.4581 28.4426 32.2784 28.4479 32.1305 28.543ZM39.7074 31.6393V33.2508H36.5371H33.3669V31.6393V30.0277H36.5371H39.7074V31.6393Z" fill="url(#paint5_linear_34717_16243)"/>
<path d="M43.2267 28.543C43.1474 28.5958 43.0312 28.7121 42.9783 28.7913C42.8832 28.934 42.8779 29.0872 42.8779 31.6393C42.8779 34.1913 42.8832 34.3445 42.9783 34.4872C43.0312 34.5665 43.1474 34.6827 43.2267 34.7355C43.3693 34.8307 43.5225 34.8359 46.0746 34.8359C48.6267 34.8359 48.7799 34.8307 48.9225 34.7355C49.0018 34.6827 49.118 34.5665 49.1709 34.4872C49.266 34.3445 49.2713 34.1913 49.2713 31.6393C49.2713 29.0872 49.266 28.934 49.1709 28.7913C49.118 28.7121 49.0018 28.5958 48.9225 28.543C48.7799 28.4479 48.6267 28.4426 46.0746 28.4426C43.5225 28.4426 43.3693 28.4479 43.2267 28.543ZM47.6861 31.6393V33.2508H46.0746H44.4631V31.6393V30.0277H46.0746H47.6861V31.6393Z" fill="url(#paint6_linear_34717_16243)"/>
<defs>
<linearGradient id="paint0_linear_34717_16243" x1="40.5" y1="38" x2="40.5" y2="10.9646" gradientUnits="userSpaceOnUse">
<stop offset="0.452535" stop-color="#FFA588"/>
<stop offset="1" stop-color="#F36A3E"/>
</linearGradient>
<linearGradient id="paint1_linear_34717_16243" x1="32.5743" y1="15.709" x2="32.5743" y2="14.1239" gradientUnits="userSpaceOnUse">
<stop offset="0.452535" stop-color="#FFA588"/>
<stop offset="1" stop-color="#F36A3E"/>
</linearGradient>
<linearGradient id="paint2_linear_34717_16243" x1="35.7447" y1="15.709" x2="35.7447" y2="14.1239" gradientUnits="userSpaceOnUse">
<stop offset="0.452535" stop-color="#FFA588"/>
<stop offset="1" stop-color="#F36A3E"/>
</linearGradient>
<linearGradient id="paint3_linear_34717_16243" x1="38.9146" y1="15.709" x2="38.9146" y2="14.1239" gradientUnits="userSpaceOnUse">
<stop offset="0.452535" stop-color="#FFA588"/>
<stop offset="1" stop-color="#F36A3E"/>
</linearGradient>
<linearGradient id="paint4_linear_34717_16243" x1="40.5264" y1="26.8574" x2="40.5264" y2="20.4641" gradientUnits="userSpaceOnUse">
<stop offset="0.452535" stop-color="#FFA588"/>
<stop offset="1" stop-color="#F36A3E"/>
</linearGradient>
<linearGradient id="paint5_linear_34717_16243" x1="36.5371" y1="34.8359" x2="36.5371" y2="28.4426" gradientUnits="userSpaceOnUse">
<stop offset="0.452535" stop-color="#FFA588"/>
<stop offset="1" stop-color="#F36A3E"/>
</linearGradient>
<linearGradient id="paint6_linear_34717_16243" x1="46.0746" y1="34.8359" x2="46.0746" y2="28.4426" gradientUnits="userSpaceOnUse">
<stop offset="0.452535" stop-color="#FFA588"/>
<stop offset="1" stop-color="#F36A3E"/>
</linearGradient>
</defs>
</svg>
