<svg width="21" height="11" viewBox="0 0 21 11" fill="none" xmlns="http://www.w3.org/2000/svg">
<path d="M0.939215 1.4299L9.90997 10.1745C10.0675 10.3281 10.2789 10.4141 10.4989 10.4141C10.7189 10.4141 10.9303 10.3281 11.0878 10.1745L20.062 1.4299C20.1354 1.35835 20.1938 1.27281 20.2337 1.17833C20.2736 1.08384 20.2941 0.982327 20.2941 0.879771C20.2941 0.777216 20.2736 0.675698 20.2337 0.581213C20.1938 0.486728 20.1354 0.40119 20.062 0.329646C19.9113 0.182459 19.709 0.100057 19.4983 0.100057C19.2877 0.100057 19.0854 0.182459 18.9347 0.329646L10.4989 8.55283L2.06478 0.329646C1.91416 0.182963 1.71223 0.100881 1.502 0.100881C1.29176 0.100881 1.08983 0.182963 0.939215 0.329646C0.865735 0.40119 0.807333 0.486728 0.767455 0.581213C0.727577 0.675698 0.707031 0.777216 0.707031 0.879771C0.707031 0.982327 0.727577 1.08384 0.767455 1.17833C0.807333 1.27281 0.865735 1.35835 0.939215 1.4299Z" fill="black"/>
</svg>
