<svg width="76" height="53" viewBox="0 0 76 53" fill="none" xmlns="http://www.w3.org/2000/svg">
<path d="M1.25623 0L11.728 2.43902C7.93366 16.2375 16.5286 30.1786 30.8899 33.5144C35.8239 34.649 40.9727 34.4331 45.7942 32.8895C50.6157 31.3459 54.9313 28.5318 58.2864 24.7434C60.8743 21.8072 62.7621 18.3229 63.8079 14.5526L74.3 16.9848C72.834 22.2852 70.1835 27.1843 66.5482 31.3132C61.8418 36.6279 55.7878 40.5759 49.024 42.7413C42.2602 44.9066 35.037 45.2091 28.1156 43.6169C7.99486 38.9223 -4.06125 19.3627 1.25623 0Z" fill="#E24A28"/>
<path d="M13.435 9.87004L11.7282 2.4375C10.6474 6.33364 10.5447 10.4359 11.429 14.3812L13.1086 21.8069C12.2286 17.8622 12.3407 13.761 13.435 9.87004Z" fill="#E24A28"/>
<path d="M66.5758 31.2978C61.8694 36.6125 55.8153 40.5606 49.0515 42.7259C42.2877 44.8913 35.0646 45.1938 28.1431 43.6016C13.9247 40.2929 3.73853 29.5857 0.841797 16.7656L2.52136 24.1914C5.41809 37.0115 15.6042 47.7255 29.8227 51.0273C36.7441 52.621 43.9677 52.3192 50.7318 50.1538C57.4959 47.9883 63.5498 44.0395 68.2554 38.7236C71.8897 34.5976 74.538 29.7005 76.0004 24.402L74.3276 16.9694C72.8616 22.2699 70.2111 27.1689 66.5758 31.2978Z" fill="#F36A3E"/>
</svg>
