<svg width="81" height="49" viewBox="0 0 81 49" fill="none" xmlns="http://www.w3.org/2000/svg">
<rect width="81" height="49" rx="24.5" fill="white"/>
<path d="M43.2622 11.5077C43.1738 11.5685 42.9031 11.8115 42.6711 12.0601C42.2568 12.4799 42.2402 12.5131 42.2402 12.7561C42.2402 12.955 42.2734 13.0434 42.3728 13.1483C42.533 13.3085 42.7374 13.3693 42.9418 13.314C43.1627 13.2588 44.0521 12.3694 44.1184 12.1374C44.1736 11.9275 44.0963 11.6624 43.9361 11.5298C43.7814 11.3972 43.4445 11.3917 43.2622 11.5077Z" fill="url(#paint0_linear_34717_16230)"/>
<path d="M47.9741 11.4971C47.7808 11.5965 47.709 11.7346 47.709 11.9887C47.709 12.2483 47.8416 12.4362 48.0736 12.5135C48.4602 12.6405 48.8138 12.392 48.8138 11.9887C48.8138 11.7291 48.7364 11.5965 48.5376 11.4916C48.3387 11.3866 48.1675 11.3866 47.9741 11.4971Z" fill="url(#paint1_linear_34717_16230)"/>
<path d="M51.9075 12.2523C51.7197 12.3462 51.565 12.6611 51.6092 12.871C51.681 13.2301 52.0677 13.4234 52.4101 13.2853C52.83 13.1085 52.8465 12.4622 52.4322 12.2634C52.2113 12.1639 52.0898 12.1584 51.9075 12.2523Z" fill="url(#paint2_linear_34717_16230)"/>
<path d="M40.2242 13.0318C40.1358 13.076 38.3903 14.7829 36.3519 16.8268C32.7945 20.4063 32.6398 20.5665 32.4741 20.9366C32.0874 21.8094 32.1261 22.7595 32.5846 23.5605C32.6895 23.7428 33.1314 24.2455 33.7115 24.831C34.2583 25.3889 34.6782 25.864 34.7002 25.9469C34.7223 26.0352 34.7058 26.1512 34.6561 26.2452C34.5124 26.5158 33.6065 27.361 30.2535 30.3495C28.4747 31.9348 26.9004 33.3766 26.7568 33.5478C26.2375 34.161 26 34.8515 26 35.7132C26 36.3264 26.0884 36.6965 26.3535 37.2323C26.6076 37.7405 26.9556 38.1272 27.4694 38.4697C28.066 38.8729 28.5189 39 29.3144 39C29.8392 39 30.0214 38.9779 30.3584 38.8674C31.2367 38.5802 31.2533 38.5581 34.8052 34.5035C36.5784 32.4762 38.1693 30.692 38.335 30.5373C38.6609 30.2445 38.8267 30.1782 39.0366 30.2556C39.1084 30.2832 39.6111 30.7417 40.1524 31.272C41.0197 32.1227 41.1909 32.2663 41.55 32.4375C42.3454 32.8132 43.2016 32.8187 44.0137 32.4486C44.4114 32.2718 44.5108 32.1779 48.1124 28.5928C50.1453 26.5711 51.8411 24.8476 51.8853 24.7647C51.9295 24.6819 51.9627 24.5327 51.9627 24.4333C51.9627 24.2676 51.5207 23.8091 46.3448 18.6331C41.9753 14.2692 40.6827 13.0097 40.5557 12.9876C40.4673 12.9711 40.3181 12.9932 40.2242 13.0318ZM40.2187 16.8323C39.484 17.5725 38.8432 18.2354 38.7935 18.3127C38.4621 18.8154 39.0863 19.4396 39.589 19.1082C39.6663 19.0585 40.3292 18.4177 41.0639 17.683L42.4062 16.3517L43.1519 17.0975L43.8977 17.8377L42.4946 19.2518C41.0749 20.6825 41.0031 20.7709 41.0694 21.1023C41.097 21.2736 41.3235 21.5056 41.4837 21.5277C41.7875 21.5774 41.9366 21.4614 43.3287 20.0694L44.7263 18.6718L45.483 19.4286L46.2453 20.1909L44.8202 21.6161L43.4005 23.0468V23.2954C43.4005 23.6986 43.7264 23.9582 44.1076 23.8643C44.2015 23.8422 44.7594 23.3285 45.6653 22.4226L47.0739 21.0195L47.8362 21.7818L48.593 22.5386L47.212 23.9196C45.7427 25.3889 45.6598 25.4994 45.7758 25.8474C45.8531 26.0905 46.041 26.212 46.3393 26.212C46.5713 26.212 46.5823 26.201 47.9964 24.7924L49.4216 23.3672L49.9906 23.9361L50.554 24.4996L47.8473 27.2063L45.1405 29.9131L40.0861 24.8586L35.0317 19.8042L37.7384 17.0975L40.4452 14.3907L40.9976 14.9431L41.55 15.4955L40.2187 16.8323ZM43.9805 31.051C43.4226 31.5592 42.8426 31.6918 42.2073 31.4543C41.9311 31.3493 41.7599 31.2057 40.865 30.3274C40.3016 29.775 39.7602 29.2833 39.6718 29.2336C39.4011 29.0955 38.904 29.0237 38.5946 29.0845C38.2301 29.1563 37.9594 29.2999 37.6059 29.6148L37.3131 29.8744L36.1751 28.7365L35.0372 27.5985L35.341 27.2781C35.7167 26.8859 35.8603 26.5435 35.8603 26.0463C35.8603 25.4 35.7719 25.2564 34.6505 24.1129C33.496 22.9308 33.38 22.754 33.38 22.1519C33.3745 21.6658 33.5126 21.3509 33.9048 20.9311L34.1976 20.6273L39.252 25.6872L44.312 30.7472L43.9805 31.051ZM35.3576 29.5761C36.1862 30.4047 36.4955 30.7527 36.4624 30.8024C36.363 30.9682 31.0047 37.0777 30.7893 37.2765C29.69 38.2819 27.9942 37.9449 27.3589 36.5971C27.2042 36.2712 27.1877 36.1883 27.1877 35.6856C27.1877 35.1829 27.2042 35.1001 27.3589 34.7742C27.4639 34.5532 27.6461 34.3046 27.8284 34.1279C28.2151 33.7522 34.1368 28.4326 34.1755 28.4271C34.192 28.4216 34.7223 28.9409 35.3576 29.5761Z" fill="url(#paint3_linear_34717_16230)"/>
<path d="M33.2694 30.9673C33.0816 31.0226 32.8385 31.2546 31.1592 32.9891C29.9274 34.2651 29.9219 34.2762 29.9219 34.5137C29.9219 34.9501 30.3583 35.2263 30.7284 35.033C30.9714 34.9059 33.8936 31.8843 33.9599 31.6855C34.109 31.2601 33.7113 30.8458 33.2694 30.9673Z" fill="url(#paint4_linear_34717_16230)"/>
<path d="M28.6517 35.5917C28.138 35.8458 28.3479 36.6523 28.9279 36.6523C29.5521 36.6523 29.7013 35.7685 29.1102 35.542C28.9279 35.4757 28.8727 35.4757 28.6517 35.5917Z" fill="url(#paint5_linear_34717_16230)"/>
<path d="M46.4665 13.0327C46.2234 13.1432 44.6325 14.7728 44.5883 14.955C44.5331 15.165 44.5938 15.3693 44.754 15.5295C44.859 15.6345 44.9474 15.6621 45.1462 15.6621H45.4114L46.3394 14.7341C47.2453 13.8282 47.2674 13.8005 47.2674 13.574C47.2674 13.1487 46.8421 12.8615 46.4665 13.0327Z" fill="url(#paint6_linear_34717_16230)"/>
<path d="M50.3881 13.8047C50.1672 13.9096 47.013 17.0804 46.9412 17.2737C46.7976 17.6604 47.1677 18.0857 47.5875 18.0084C47.7643 17.9752 48.0184 17.7432 49.438 16.3346C51.2444 14.5338 51.2941 14.462 51.1173 14.0809C51.0565 13.9538 50.9516 13.8599 50.8301 13.8047C50.6036 13.7107 50.5981 13.7107 50.3881 13.8047Z" fill="url(#paint7_linear_34717_16230)"/>
<path d="M53.3382 15.4898C53.1227 15.7107 53.1117 16.0753 53.3161 16.2852C53.6917 16.6553 54.2828 16.4178 54.2828 15.8985C54.2828 15.556 54.0618 15.3296 53.7304 15.3296C53.5481 15.3296 53.4652 15.3627 53.3382 15.4898Z" fill="url(#paint8_linear_34717_16230)"/>
<path d="M50.5982 18.2196C49.278 19.5344 49.2559 19.562 49.2559 19.7885C49.2559 19.9597 49.2945 20.0536 49.4161 20.1862C49.5542 20.3298 49.6149 20.3574 49.8414 20.3574H50.101L51.3384 19.1256C52.0234 18.4517 52.6144 17.833 52.6586 17.7501C52.8796 17.3248 52.6089 16.8773 52.1173 16.8773C51.9571 16.8773 51.8024 17.0099 50.5982 18.2196Z" fill="url(#paint9_linear_34717_16230)"/>
<path d="M52.1558 21.3065C51.5868 21.8754 51.515 22.0356 51.6531 22.3671C51.7525 22.6101 52.0287 22.7482 52.2994 22.693C52.4928 22.6543 53.0893 22.1295 53.3545 21.7705C53.6859 21.312 53.465 20.7982 52.9236 20.7982C52.6695 20.7982 52.6529 20.8093 52.1558 21.3065Z" fill="url(#paint10_linear_34717_16230)"/>
<defs>
<linearGradient id="paint0_linear_34717_16230" x1="43.1882" y1="13.334" x2="43.1882" y2="11.4252" gradientUnits="userSpaceOnUse">
<stop offset="0.452535" stop-color="#FFA588"/>
<stop offset="1" stop-color="#F36A3E"/>
</linearGradient>
<linearGradient id="paint1_linear_34717_16230" x1="48.2614" y1="12.5469" x2="48.2614" y2="11.4135" gradientUnits="userSpaceOnUse">
<stop offset="0.452535" stop-color="#FFA588"/>
<stop offset="1" stop-color="#F36A3E"/>
</linearGradient>
<linearGradient id="paint2_linear_34717_16230" x1="52.1679" y1="13.3301" x2="52.1679" y2="12.1852" gradientUnits="userSpaceOnUse">
<stop offset="0.452535" stop-color="#FFA588"/>
<stop offset="1" stop-color="#F36A3E"/>
</linearGradient>
<linearGradient id="paint3_linear_34717_16230" x1="38.9813" y1="39" x2="38.9813" y2="12.9821" gradientUnits="userSpaceOnUse">
<stop offset="0.452535" stop-color="#FFA588"/>
<stop offset="1" stop-color="#F36A3E"/>
</linearGradient>
<linearGradient id="paint4_linear_34717_16230" x1="31.9568" y1="35.0957" x2="31.9568" y2="30.9458" gradientUnits="userSpaceOnUse">
<stop offset="0.452535" stop-color="#FFA588"/>
<stop offset="1" stop-color="#F36A3E"/>
</linearGradient>
<linearGradient id="paint5_linear_34717_16230" x1="28.9215" y1="36.6523" x2="28.9215" y2="35.4972" gradientUnits="userSpaceOnUse">
<stop offset="0.452535" stop-color="#FFA588"/>
<stop offset="1" stop-color="#F36A3E"/>
</linearGradient>
<linearGradient id="paint6_linear_34717_16230" x1="45.9179" y1="15.6621" x2="45.9179" y2="12.9824" gradientUnits="userSpaceOnUse">
<stop offset="0.452535" stop-color="#FFA588"/>
<stop offset="1" stop-color="#F36A3E"/>
</linearGradient>
<linearGradient id="paint7_linear_34717_16230" x1="49.0472" y1="18.0176" x2="49.0472" y2="13.7342" gradientUnits="userSpaceOnUse">
<stop offset="0.452535" stop-color="#FFA588"/>
<stop offset="1" stop-color="#F36A3E"/>
</linearGradient>
<linearGradient id="paint8_linear_34717_16230" x1="53.7261" y1="16.4648" x2="53.7261" y2="15.3296" gradientUnits="userSpaceOnUse">
<stop offset="0.452535" stop-color="#FFA588"/>
<stop offset="1" stop-color="#F36A3E"/>
</linearGradient>
<linearGradient id="paint9_linear_34717_16230" x1="50.9962" y1="20.3574" x2="50.9962" y2="16.8773" gradientUnits="userSpaceOnUse">
<stop offset="0.452535" stop-color="#FFA588"/>
<stop offset="1" stop-color="#F36A3E"/>
</linearGradient>
<linearGradient id="paint10_linear_34717_16230" x1="52.5517" y1="22.7051" x2="52.5517" y2="20.7982" gradientUnits="userSpaceOnUse">
<stop offset="0.452535" stop-color="#FFA588"/>
<stop offset="1" stop-color="#F36A3E"/>
</linearGradient>
</defs>
</svg>
