<svg width="68" height="84" viewBox="0 0 68 84" fill="none" xmlns="http://www.w3.org/2000/svg">
<path d="M10.5123 24L1.23248 33.2757C-3.12016 37.6331 4.42227 52.2452 18.0869 65.9105C31.7515 79.5758 46.3584 87.1232 50.7202 82.7657L60 73.4901L10.5123 24Z" fill="#F36A3E"/>
<path d="M60.0988 73.9321C64.4625 69.5722 56.9037 54.9511 43.2156 41.275C29.5276 27.5989 14.8938 20.0466 10.5301 24.4065C6.16638 28.7664 13.7252 43.3875 27.4133 57.0636C41.1013 70.7397 55.7351 78.292 60.0988 73.9321Z" fill="#F36A3E"/>
<path style="mix-blend-mode:multiply" d="M60.0988 73.9321C64.4625 69.5722 56.9037 54.9511 43.2156 41.275C29.5276 27.5989 14.8938 20.0466 10.5301 24.4065C6.16638 28.7664 13.7252 43.3875 27.4133 57.0636C41.1013 70.7397 55.7351 78.292 60.0988 73.9321Z" fill="url(#paint0_radial_34717_14347)"/>
<path d="M10.1839 5.57812L3.8425 11.7644C0.866491 14.6676 6.02582 24.4264 15.3618 33.5159C24.6977 42.6054 34.6919 47.6747 37.6586 44.7489L44 38.5671L10.1839 5.57812Z" fill="#FFDBDB"/>
<path d="M43.5885 38.9027C46.5444 35.9494 41.4226 26.0438 32.1486 16.7779C22.8746 7.51195 12.9603 2.39458 10.0044 5.34788C7.04855 8.30119 12.1704 18.2068 21.4444 27.4727C30.7184 36.7386 40.6326 41.856 43.5885 38.9027Z" fill="#FFDBDB"/>
<defs>
<radialGradient id="paint0_radial_34717_14347" cx="0" cy="0" r="1" gradientUnits="userSpaceOnUse" gradientTransform="translate(20.5272 35.9119) rotate(44.975) scale(36.8115 16.1971)">
<stop stop-color="#413655"/>
<stop offset="0.2" stop-color="#685F78" stop-opacity="0.79"/>
<stop offset="1" stop-color="white" stop-opacity="0"/>
</radialGradient>
</defs>
</svg>
