<svg width="21" height="11" viewBox="0 0 21 11" fill="none" xmlns="http://www.w3.org/2000/svg">
<path d="M0.939215 9.5701L9.90997 0.82548C10.0675 0.671894 10.2789 0.585937 10.4989 0.585937C10.7189 0.585937 10.9303 0.671894 11.0878 0.82548L20.062 9.5701C20.1354 9.64165 20.1938 9.72719 20.2337 9.82167C20.2736 9.91616 20.2941 10.0177 20.2941 10.1202C20.2941 10.2228 20.2736 10.3243 20.2337 10.4188C20.1938 10.5133 20.1354 10.5988 20.062 10.6704C19.9113 10.8175 19.709 10.8999 19.4983 10.8999C19.2877 10.8999 19.0854 10.8175 18.9347 10.6704L10.4989 2.44717L2.06478 10.6704C1.91416 10.817 1.71223 10.8991 1.502 10.8991C1.29176 10.8991 1.08983 10.817 0.939215 10.6704C0.865735 10.5988 0.807333 10.5133 0.767455 10.4188C0.727577 10.3243 0.707031 10.2228 0.707031 10.1202C0.707031 10.0177 0.727577 9.91616 0.767455 9.82167C0.807333 9.72719 0.865735 9.64165 0.939215 9.5701Z" fill="black"/>
</svg>
